<svg width="254" height="294" viewBox="0 0 254 294" fill="none" xmlns="http://www.w3.org/2000/svg">
<path fill-rule="evenodd" clip-rule="evenodd" d="M0 127.273V125.172C0 56.0418 56.3866 0 125.943 0H128.057C197.613 0 254 56.0418 254 125.172V127.274C254 196.405 197.613 252.447 128.057 252.447H125.943C56.3866 252.448 0 196.405 0 127.274" fill="#E4EBF7"/>
<path fill-rule="evenodd" clip-rule="evenodd" d="M40.1082 130.791C40.0066 131.882 39.6887 132.942 39.1728 133.91C38.657 134.878 37.9534 135.735 37.1027 136.431C36.252 137.127 35.2709 137.65 34.2162 137.967C33.1614 138.285 32.0538 138.392 30.9572 138.282C29.8606 138.172 28.7967 137.848 27.827 137.327C26.8572 136.807 26.0008 136.1 25.307 135.249C24.6132 134.398 24.0959 133.419 23.7848 132.368C23.4737 131.317 23.375 130.215 23.4945 129.126C23.7332 126.95 24.8275 124.956 26.5389 123.578C28.2504 122.2 30.4404 121.55 32.6319 121.769C34.8234 121.989 36.8388 123.06 38.2392 124.75C39.6395 126.44 40.3113 128.611 40.1082 130.791Z" fill="white"/>
<path d="M48.799 146.501L36.0391 157.317M37.3001 134.257L47.8749 140.216L37.3001 134.257Z" stroke="white" stroke-width="2"/>
<path fill-rule="evenodd" clip-rule="evenodd" d="M40.2259 159.379C40.0739 160.878 39.3289 162.256 38.1546 163.209C36.9804 164.163 35.4731 164.614 33.9645 164.463C32.4558 164.312 31.0693 163.571 30.11 162.404C29.1507 161.237 28.6971 159.739 28.8491 158.24C28.9244 157.497 29.146 156.777 29.5014 156.119C29.8568 155.462 30.339 154.881 30.9204 154.409C31.5018 153.937 32.1711 153.583 32.8901 153.368C33.609 153.153 34.3635 153.081 35.1105 153.155C35.8576 153.23 36.5824 153.451 37.2438 153.804C37.9051 154.157 38.49 154.636 38.965 155.214C39.44 155.792 39.7958 156.457 40.0122 157.172C40.2285 157.886 40.3012 158.636 40.2259 159.379ZM58.0957 143.23C58.026 143.983 57.807 144.714 57.4514 145.383C57.0957 146.051 56.6105 146.642 56.0237 147.123C55.4368 147.603 54.76 147.964 54.0323 148.183C53.3046 148.402 52.5404 148.476 51.7838 148.4C51.0272 148.325 50.2932 148.101 49.6242 147.741C48.9551 147.382 48.3643 146.895 47.8858 146.307C47.4073 145.72 47.0506 145.044 46.8363 144.319C46.622 143.594 46.5543 142.834 46.6371 142.082C46.8026 140.582 47.5576 139.207 48.7379 138.258C49.9181 137.308 51.4281 136.86 52.939 137.012C54.4499 137.163 55.8395 137.901 56.8052 139.066C57.771 140.231 58.2348 141.727 58.0957 143.23ZM99.8923 26.5466L129.976 26.5326C130.584 26.5324 131.186 26.4132 131.747 26.1819C132.309 25.9505 132.819 25.6116 133.248 25.1843C133.678 24.757 134.019 24.2498 134.251 23.6917C134.483 23.1335 134.603 22.5353 134.603 21.9313C134.603 21.3272 134.483 20.7291 134.25 20.1711C134.017 19.6131 133.676 19.1062 133.246 18.6792C132.816 18.2522 132.306 17.9135 131.744 17.6826C131.183 17.4516 130.581 17.3328 129.973 17.333L99.8893 17.346C99.2814 17.3462 98.6796 17.4654 98.1181 17.6968C97.5566 17.9282 97.0464 18.2672 96.6168 18.6945C96.1871 19.1218 95.8463 19.6291 95.6139 20.1873C95.3815 20.7455 95.262 21.3437 95.2622 21.9478C95.2624 22.552 95.3823 23.1501 95.6151 23.7082C95.8479 24.2662 96.189 24.7733 96.6189 25.2003C97.0489 25.6273 97.5592 25.966 98.1209 26.197C98.6825 26.428 99.2844 26.5468 99.8923 26.5466ZM111.399 44.9318L141.483 44.9187C142.699 44.9004 143.858 44.4074 144.711 43.5463C145.564 42.6853 146.042 41.5253 146.041 40.317C146.041 39.1086 145.562 37.949 144.708 37.0887C143.855 36.2284 142.695 35.7364 141.479 35.7191L111.395 35.7322C110.787 35.7324 110.186 35.8517 109.624 36.0831C109.063 36.3145 108.553 36.6535 108.123 37.0808C107.694 37.5082 107.353 38.0154 107.121 38.5736C106.888 39.1317 106.769 39.7299 106.769 40.334C106.769 40.938 106.889 41.5361 107.122 42.0941C107.355 42.6521 107.696 43.159 108.126 43.5859C108.556 44.0129 109.066 44.3515 109.628 44.5824C110.19 44.8133 110.791 44.932 111.399 44.9318Z" fill="white"/>
<path fill-rule="evenodd" clip-rule="evenodd" d="M113.797 26.5329V26.5309L129.721 26.5249C129.107 26.5161 128.498 26.6286 127.929 26.8559C127.359 27.0832 126.841 27.4208 126.404 27.8489C125.967 28.2771 125.62 28.7873 125.383 29.35C125.147 29.9126 125.025 30.5164 125.025 31.1262C125.025 31.736 125.148 32.3398 125.385 32.9022C125.622 33.4647 125.969 33.9747 126.406 34.4026C126.843 34.8305 127.362 35.1677 127.931 35.3946C128.501 35.6215 129.11 35.7337 129.724 35.7245L113.801 35.7315V35.7295C115.028 35.729 116.205 35.244 117.072 34.3813C117.939 33.5185 118.426 32.3487 118.425 31.1292C118.425 29.9097 117.937 28.7403 117.069 27.8783C116.201 27.0163 115.024 26.5324 113.797 26.5329ZM186.157 135.631C185.599 141.131 180.661 145.14 175.129 144.585C169.595 144.031 165.562 139.123 166.12 133.624C166.677 128.124 171.615 124.116 177.149 124.67C182.682 125.225 186.715 130.132 186.158 135.631" fill="white"/>
<path d="M194.714 156.496L179.324 169.542M180.847 141.729L193.598 148.916L180.847 141.729Z" stroke="white" stroke-width="2"/>
<path fill-rule="evenodd" clip-rule="evenodd" d="M186.303 170.112C186.222 171.016 185.962 171.894 185.537 172.696C185.112 173.499 184.531 174.21 183.828 174.788C183.125 175.365 182.313 175.799 181.44 176.063C180.567 176.326 179.65 176.415 178.742 176.324C177.835 176.233 176.954 175.964 176.152 175.532C175.349 175.101 174.641 174.515 174.068 173.809C173.495 173.103 173.069 172.292 172.814 171.421C172.559 170.55 172.48 169.638 172.583 168.737C172.786 166.944 173.692 165.304 175.105 164.172C176.517 163.039 178.321 162.506 180.127 162.687C181.932 162.868 183.593 163.749 184.749 165.139C185.905 166.529 186.464 168.316 186.303 170.112ZM205.14 153.335C205.056 154.243 204.791 155.125 204.362 155.93C203.933 156.736 203.348 157.449 202.64 158.028C201.932 158.607 201.116 159.042 200.238 159.306C199.361 159.57 198.439 159.659 197.527 159.568C196.614 159.476 195.729 159.206 194.922 158.773C194.116 158.34 193.403 157.752 192.826 157.044C192.249 156.336 191.819 155.521 191.56 154.647C191.301 153.772 191.219 152.856 191.319 151.95C191.518 150.139 192.429 148.481 193.852 147.335C195.276 146.189 197.098 145.648 198.921 145.831C200.744 146.014 202.42 146.905 203.585 148.31C204.75 149.716 205.309 151.522 205.14 153.335Z" fill="white"/>
<path fill-rule="evenodd" clip-rule="evenodd" d="M153.276 192.439C153.276 193.03 153.04 193.597 152.62 194.015C152.199 194.432 151.629 194.667 151.035 194.667C150.44 194.667 149.87 194.432 149.45 194.015C149.029 193.597 148.793 193.03 148.793 192.439C148.793 191.848 149.029 191.282 149.45 190.864C149.87 190.446 150.44 190.211 151.035 190.211C151.629 190.211 152.199 190.446 152.62 190.864C153.04 191.282 153.276 191.848 153.276 192.439V192.439ZM227.264 115.967C227.264 116.558 227.028 117.125 226.608 117.543C226.187 117.96 225.617 118.195 225.022 118.195C224.427 118.195 223.857 117.96 223.437 117.543C223.016 117.125 222.78 116.558 222.78 115.967C222.78 115.376 223.016 114.809 223.437 114.391C223.857 113.974 224.427 113.739 225.022 113.739C225.616 113.739 226.186 113.974 226.607 114.391C227.027 114.809 227.263 115.376 227.263 115.967H227.264ZM218.296 151.085C218.296 151.377 218.237 151.667 218.125 151.938C218.012 152.208 217.847 152.454 217.638 152.661C217.43 152.868 217.183 153.032 216.911 153.144C216.639 153.256 216.347 153.313 216.052 153.313C215.758 153.313 215.466 153.255 215.194 153.143C214.922 153.031 214.675 152.867 214.467 152.66C214.259 152.453 214.093 152.207 213.981 151.937C213.868 151.666 213.81 151.376 213.81 151.084C213.81 150.492 214.047 149.926 214.467 149.508C214.888 149.089 215.458 148.855 216.053 148.855C216.648 148.855 217.218 149.089 217.639 149.508C218.059 149.926 218.296 150.492 218.296 151.084V151.085ZM178.483 107.524C178.49 107.821 178.436 108.116 178.327 108.392C178.217 108.667 178.053 108.919 177.844 109.131C177.635 109.343 177.386 109.511 177.11 109.626C176.835 109.741 176.54 109.8 176.241 109.8C175.943 109.8 175.647 109.741 175.372 109.626C175.097 109.511 174.848 109.343 174.639 109.131C174.43 108.919 174.266 108.667 174.156 108.392C174.046 108.116 173.993 107.821 173.999 107.524C174.012 106.941 174.253 106.387 174.672 105.979C175.091 105.571 175.655 105.343 176.241 105.343C176.828 105.343 177.391 105.571 177.81 105.979C178.229 106.387 178.471 106.941 178.483 107.524ZM197.02 92.0118C197.026 92.3084 196.973 92.6033 196.863 92.8792C196.753 93.155 196.589 93.4063 196.38 93.6183C196.172 93.8304 195.922 93.9988 195.647 94.1138C195.372 94.2288 195.076 94.288 194.778 94.288C194.479 94.288 194.184 94.2288 193.909 94.1138C193.633 93.9988 193.384 93.8304 193.175 93.6183C192.966 93.4063 192.802 93.155 192.692 92.8792C192.583 92.6033 192.529 92.3084 192.536 92.0118C192.548 91.4289 192.79 90.8741 193.209 90.4663C193.628 90.0585 194.191 89.8301 194.778 89.8301C195.364 89.8301 195.928 90.0585 196.347 90.4663C196.766 90.8741 197.008 91.4289 197.02 92.0118V92.0118ZM203.847 180.795C203.847 181.386 203.611 181.953 203.19 182.371C202.769 182.789 202.199 183.024 201.604 183.024C201.009 183.024 200.439 182.789 200.018 182.371C199.598 181.953 199.362 181.386 199.362 180.795C199.362 180.204 199.598 179.637 200.018 179.219C200.439 178.801 201.009 178.566 201.604 178.566C202.199 178.566 202.769 178.801 203.19 179.219C203.611 179.637 203.847 180.204 203.847 180.795V180.795Z" stroke="white" stroke-width="2"/>
<path d="M222.778 117.164L209.825 125.087L194.379 117.163V94.2432M216.302 153.313L214.373 173.551L203.348 179.557L216.302 153.313ZM175.198 174.861L168.786 184.701H157.325L152.777 191.202L175.198 174.861ZM176.489 125.104V109.257V125.104Z" stroke="white" stroke-width="2"/>
<path fill-rule="evenodd" clip-rule="evenodd" d="M168.06 65.7126H164.074C162.806 65.7091 161.591 65.2071 160.695 64.3162C159.798 63.4253 159.293 62.2179 159.289 60.9579C159.293 59.6976 159.798 58.49 160.694 57.5989C161.591 56.7077 162.806 56.2056 164.074 56.2021H168.06C169.328 56.2056 170.543 56.7077 171.44 57.5989C172.336 58.49 172.841 59.6976 172.845 60.9579C172.841 62.2179 172.336 63.4253 171.439 64.3162C170.543 65.2071 169.328 65.7091 168.06 65.7126Z" fill="white"/>
<path fill-rule="evenodd" clip-rule="evenodd" d="M176.371 29.7104C176.371 13.3857 189.686 0.151367 206.112 0.151367C222.536 0.151367 235.853 13.3857 235.853 29.7104C235.853 46.034 222.536 59.2693 206.112 59.2693C189.686 59.2693 176.371 46.034 176.371 29.7104Z" fill="#1890FF"/>
<path fill-rule="evenodd" clip-rule="evenodd" d="M207.774 38.09C208.279 38.5913 208.566 39.2351 208.566 40.0232C208.566 40.8113 208.278 41.4921 207.774 41.9924C207.197 42.4938 206.549 42.7444 205.756 42.7444C204.965 42.7444 204.315 42.4587 203.81 41.9573C203.233 41.456 202.983 40.8113 202.983 40.0232C202.983 39.2351 203.233 38.5913 203.81 38.09C204.315 37.5887 204.965 37.338 205.757 37.338C206.549 37.338 207.232 37.5887 207.774 38.09ZM212.097 18.5749C213.538 19.8272 214.259 21.5458 214.259 23.7306C214.259 25.4472 213.828 26.869 213.029 27.992C212.962 28.0883 212.891 28.1725 212.809 28.2577C212.39 28.6879 211.387 29.6073 209.827 30.964C209.22 31.4337 208.728 32.0335 208.387 32.7186C208.022 33.4534 207.837 34.2629 207.846 35.082V35.5833H203.702V35.082C203.702 33.7213 203.919 32.5392 204.423 31.5726C204.891 30.606 206.296 29.102 208.638 27.0244L209.072 26.5231C209.72 25.736 210.044 24.8757 210.044 23.9813C210.044 22.7981 209.683 21.8677 209.035 21.1888C208.351 20.507 207.378 20.1852 206.152 20.1852C204.602 20.1852 203.487 20.6504 202.765 21.619C202.392 22.1203 202.139 22.757 201.999 23.5281C201.911 23.9885 201.665 24.4041 201.302 24.7027C200.938 25.0013 200.481 25.1639 200.01 25.1625H200.006C198.718 25.1625 197.729 23.9763 198.009 22.7259C198.348 21.2039 199.038 19.9385 200.1 18.9318C201.649 17.4278 203.739 16.6758 206.405 16.6758C208.746 16.6758 210.656 17.2844 212.097 18.5749Z" fill="white"/>
<path fill-rule="evenodd" clip-rule="evenodd" d="M52.5012 75.9346C52.5012 75.9346 74.5042 81.3089 80.0498 91.9223C85.6742 102.691 73.6416 101.207 64.1806 96.8705C53.2245 91.8491 39.2621 85.0168 52.5012 75.9346Z" fill="#FFB594"/>
<path fill-rule="evenodd" clip-rule="evenodd" d="M91.2839 67.2848L90.8309 70.1855C90.0713 70.6769 86.0409 67.5154 86.0409 67.5154L84.3813 68.2654L83.0234 62.5662C83.0234 62.5662 89.8987 57.9649 92.0193 57.5347C94.493 57.0324 101.991 58.4773 102.814 59.8188C102.814 59.8188 104.146 60.3061 100.567 60.5107C96.9879 60.7142 95.4797 60.9589 93.7172 63.6511C91.9548 66.3443 91.2839 67.2848 91.2839 67.2848Z" fill="#FFC6A0"/>
<path fill-rule="evenodd" clip-rule="evenodd" d="M129.188 111.266C126.538 103.521 122.984 98.0502 120.192 95.746C116.661 92.8323 110.769 93.5151 108.726 91.5478C107.444 90.3135 105.482 90.3476 105.482 90.3476C105.482 90.3476 90.3695 87.1812 88.5051 86.8593C86.1142 86.4482 86.3624 86.1434 82.3976 85.4505C80.8137 83.5384 79.4548 84.3255 79.4548 84.3255L72.2818 82.9388C71.4213 81.4629 69.8374 81.9131 69.8374 81.9131L67.3476 81.0137C65.688 91.0164 59.5391 94.8466 59.5391 94.8466C61.3499 95.9716 75.381 103.169 75.381 103.169L80.5332 140.378C80.5332 140.378 77.1828 146.088 81.8911 149.512C81.8911 149.512 101.95 145.759 117.121 149.182C117.121 149.182 120.195 146.629 118.102 140.352C118.629 137.334 119.508 132.067 119.853 128.699C120.242 129.473 121.89 130.622 123.021 132.185C123.021 132.185 132.511 124.801 134.171 118.136C133.331 117.411 132.559 116.547 131.884 115.676C131.312 114.938 131.522 113.615 131.112 112.952C130.437 111.865 129.292 111.57 129.188 111.266Z" fill="white"/>
<path fill-rule="evenodd" clip-rule="evenodd" d="M101.983 290.375C101.983 290.375 106.316 292.421 109.402 291.398C112.248 290.456 113.973 292.068 116.545 292.58C119.118 293.091 123.48 293.683 128.334 291.316C128.231 285.792 121.385 287.326 116.269 284.585C113.683 283.202 112.451 279.851 112.639 275.763H103.154C103.154 275.763 101.749 286.311 101.983 290.375Z" fill="#CBD1D1"/>
<path fill-rule="evenodd" clip-rule="evenodd" d="M101.961 290.202C101.961 290.202 104.41 291.477 108.78 290.857C111.865 290.419 112.525 291.339 116.268 291.891C120.013 292.442 127.087 291.821 128.196 290.994C128.613 292.097 127.85 293.063 127.85 293.063C127.85 293.063 126.325 293.667 122.995 293.889C120.947 294.025 117.144 294.181 115.321 293.385C113.518 292.006 110.028 291.477 109.542 293.143C105.59 294.096 102.122 292.856 102.122 292.856L101.961 290.202Z" fill="#2B0849"/>
<path fill-rule="evenodd" clip-rule="evenodd" d="M109.299 276.384H112.42C112.42 276.384 112.316 283.104 116.996 284.965C112.315 285.584 108.362 282.656 109.299 276.384Z" fill="#A4AABA"/>
<path fill-rule="evenodd" clip-rule="evenodd" d="M58.0498 272.73C58.0498 272.73 55.9241 280.166 53.5251 285.069C51.7112 288.774 49.2627 292.582 59.0385 292.582C65.7453 292.582 68.0707 292.1 66.5271 285.965C64.9836 279.828 66.7955 272.73 66.7955 272.73H58.0498Z" fill="#CBD1D1"/>
<path fill-rule="evenodd" clip-rule="evenodd" d="M51.9316 290.17C51.9316 290.17 54.0471 291.342 58.6232 291.342C64.7601 291.342 66.9452 289.688 66.9452 289.688C66.9452 289.688 67.5526 290.804 66.3208 291.858C65.319 292.716 62.6919 293.454 58.8654 293.408C54.6837 293.36 52.9818 292.841 52.0698 292.237C51.2375 291.686 51.3767 290.653 51.9316 290.17Z" fill="#2B0849"/>
<path fill-rule="evenodd" clip-rule="evenodd" d="M58.9339 274.639C58.9339 274.639 58.9672 276.162 58.6171 277.577C58.265 279.001 57.5296 280.689 57.4771 281.727C57.4186 282.881 62.0543 283.311 62.6777 281.761C63.3032 280.21 63.9832 275.317 64.6077 274.489C65.2321 273.662 59.6613 272.365 58.9339 274.64" fill="#A4AABA"/>
<path fill-rule="evenodd" clip-rule="evenodd" d="M100.542 278.86L114.038 278.952C114.038 278.952 115.348 224.286 115.908 214.376C116.467 204.468 119.717 170.896 116.919 151.079L104.26 150.434L81.2093 151.216C81.2093 151.216 80.7714 155.192 80.0037 161.218C79.9402 161.716 79.3157 162.064 79.2481 162.587C79.1724 163.174 79.6748 163.945 79.5709 164.558C77.186 178.676 73.1375 197.751 70.7495 211.36C70.6325 212.028 69.5046 212.372 69.2786 214.059C69.2383 214.361 69.4915 215.588 69.3916 215.858C62.4578 234.653 58.3457 263.829 54.9883 277.909L69.7245 277.895C69.7245 277.895 71.941 269.302 73.7902 260.88C76.6261 247.959 97.1057 175.642 97.1057 175.642L100.148 175.12L101.201 221.594C101.201 221.594 100.975 222.831 101.541 223.619C102.106 224.406 100.976 224.745 101.145 225.869L101.541 227.668C101.541 227.668 101.088 234.865 100.635 239.59C100.183 244.312 100.542 278.86 100.542 278.86Z" fill="#7BB2F9"/>
<path d="M107.301 225.345C107.301 225.345 110.099 224.232 113.458 221.451M76.7578 221.819C77.921 221.914 80.8315 219.795 83.7744 216.871L76.7578 221.819Z" stroke="#648BD8" stroke-width="1.051" stroke-linecap="round" stroke-linejoin="round"/>
<path d="M108.223 222.295C108.223 222.295 111.02 221.182 114.379 218.4" stroke="#648BD8" stroke-linecap="round" stroke-linejoin="round"/>
<path d="M56.6172 274.753H70.045M75.402 224.969C75.402 224.969 78.0472 224.377 81.9645 221.595L75.402 224.969ZM86.7919 151.641C86.5195 154.755 87.0945 160.188 82.4175 160.788L86.7919 151.641ZM104.543 149.882C104.543 149.882 104.654 163.931 103.238 164.987C100.999 166.656 100.222 166.936 100.222 166.936L104.543 149.882ZM100.674 150.441C100.674 150.441 100.709 163.356 99.4671 174.884L100.674 150.441ZM94.5025 175.983C94.5025 175.983 101.778 174.314 104.017 174.314L94.5025 175.983ZM74.9682 206.013C74.6558 207.54 74.3266 209.065 73.9805 210.585C73.9805 210.585 72.5096 212.422 72.9626 214.371C73.4155 216.32 72.0072 216.422 67.9334 229.767C66.2224 235.372 63.4037 248.408 61.5293 257.438L61.2962 258.561L74.9682 206.013ZM76.3594 197.937C76.0748 199.528 75.7782 201.117 75.4696 202.704L76.3594 197.937ZM83.3224 152.241L82.1159 162.736C82.1159 162.736 81.0091 162.887 81.6114 164.986C81.7254 166.336 78.9138 180.803 76.3856 195.498L83.3224 152.241Z" stroke="#648BD8" stroke-width="1.051" stroke-linecap="round" stroke-linejoin="round"/>
<path fill-rule="evenodd" clip-rule="evenodd" d="M117.268 148.217C117.268 148.217 100.07 145.105 81.0577 148.418C81.2171 150.939 81.0547 152.579 81.0547 152.579C81.0547 152.579 95.8717 149.753 117.04 152.266C117.295 149.905 117.268 148.217 117.268 148.217Z" fill="#192064"/>
<path fill-rule="evenodd" clip-rule="evenodd" d="M107.264 151.17L107.267 146.246C107.268 146.035 107.187 145.832 107.041 145.679C106.894 145.527 106.694 145.437 106.482 145.429C104.02 145.337 101.371 145.32 98.5764 145.415C98.3631 145.422 98.1611 145.511 98.0127 145.664C97.8643 145.816 97.781 146.02 97.7804 146.232L97.7774 151.151C97.7769 151.26 97.7984 151.367 97.8406 151.468C97.8828 151.568 97.9449 151.659 98.0231 151.735C98.1012 151.811 98.194 151.87 98.2958 151.91C98.3976 151.95 98.5064 151.969 98.6157 151.966C101.022 151.906 103.633 151.902 106.414 151.983C106.524 151.987 106.633 151.968 106.736 151.929C106.839 151.89 106.932 151.831 107.011 151.755C107.091 151.68 107.154 151.589 107.197 151.489C107.24 151.388 107.263 151.28 107.264 151.171" fill="white"/>
<path fill-rule="evenodd" clip-rule="evenodd" d="M106.137 150.236L106.139 147.152C106.14 146.984 106.075 146.823 105.959 146.702C105.842 146.581 105.683 146.51 105.514 146.504C103.542 146.44 101.569 146.436 99.5965 146.494C99.4267 146.499 99.2654 146.57 99.1469 146.691C99.0283 146.812 98.9617 146.974 98.961 147.143V150.223C98.9604 150.309 98.9771 150.394 99.0102 150.473C99.0433 150.552 99.0921 150.624 99.1536 150.684C99.2151 150.745 99.2881 150.792 99.3684 150.824C99.4486 150.855 99.5344 150.871 99.6207 150.869C101.569 150.826 103.518 150.83 105.466 150.88C105.831 150.89 106.137 150.599 106.137 150.236Z" fill="#192064"/>
<path d="M101.878 175.033L102.784 219.795C102.784 219.795 103.463 221.369 102.557 222.494C101.652 223.619 105.047 223.169 103.463 224.743C101.879 226.317 104.368 225.868 103.463 228.117C102.861 229.61 102.46 249.274 102.357 263.357M101.148 275.752H113.596H101.148ZM102.332 270.854C102.338 274.25 102.374 276.66 102.444 277.378L102.332 270.854ZM102.347 264.856C102.338 266.306 102.333 267.755 102.332 269.205L102.347 264.856Z" stroke="#648BD8" stroke-width="1.051" stroke-linecap="round" stroke-linejoin="round"/>
<path fill-rule="evenodd" clip-rule="evenodd" d="M47.2924 83.2505C47.2924 83.2505 46.7718 89.3117 54.5793 88.8174C65.8784 88.1035 63.8789 79.4473 86.3984 67.1044C85.6054 64.3891 83.9297 62.3477 83.9297 62.3477C83.9297 62.3477 72.7638 65.466 61.1459 70.4152C54.32 73.323 47.6323 76.7842 47.2924 83.2505ZM105.386 90.901L106.335 85.5146L97.3727 74.0539L92.2911 79.4403L90.5357 87.2953C90.522 87.3536 90.525 87.4145 90.5443 87.4711C90.5635 87.5278 90.5983 87.578 90.6446 87.6162C91.6182 88.4183 97.2022 92.6426 105.119 91.1697C105.185 91.1569 105.246 91.1244 105.294 91.0764C105.341 91.0284 105.373 90.9673 105.385 90.901" fill="#FFC6A0"/>
<path fill-rule="evenodd" clip-rule="evenodd" d="M94.772 79.1999C94.772 79.1999 90.1989 76.3393 92.3185 72.3266C93.9558 69.2283 96.8714 73.4626 96.8714 73.4626C96.8714 73.4626 97.396 69.8108 100.02 69.8108C100.545 68.7681 101.595 65.6377 101.595 65.6377C101.595 65.6377 113.141 68.2457 115.241 68.7671C115.241 73.984 112.916 88.2431 107.331 88.6813C98.3605 89.3862 94.772 79.1999 94.772 79.1999Z" fill="#FFC6A0"/>
<path fill-rule="evenodd" clip-rule="evenodd" d="M114.883 73.2426C117.507 71.156 118.384 63.4946 118.384 63.4946C118.384 63.4946 115.883 63.0032 111.685 61.4391C106.96 59.3525 98.7736 56.6793 94.0502 62.4177C84.2966 65.6493 91.982 82.2938 91.982 82.2938L94.719 79.2647C94.719 79.2647 90.7492 75.9689 92.6206 73.005C94.8098 69.5337 96.5753 74.0808 96.5753 74.0808C96.5753 74.0808 97.2179 71.6875 100.188 70.7299C100.546 70.018 101.233 68.0487 101.633 66.8696C101.718 66.6152 101.896 66.4019 102.132 66.2713C102.368 66.1407 102.644 66.1023 102.907 66.1637C105.328 66.7232 111.661 68.1881 114.363 68.8328C114.89 68.9582 115.242 69.4495 115.191 69.9859L114.883 73.2426Z" fill="#520038"/>
<path fill-rule="evenodd" clip-rule="evenodd" d="M105.905 75.868C105.801 76.4797 105.318 76.9088 104.826 76.8266C104.332 76.7434 104.017 76.1809 104.121 75.5692C104.225 74.9576 104.709 74.5285 105.201 74.6107C105.693 74.6929 106.008 75.2564 105.905 75.868ZM113.123 77.5024C113.019 78.114 112.536 78.5432 112.044 78.461C111.552 78.3778 111.237 77.8153 111.34 77.2036C111.444 76.592 111.927 76.1628 112.419 76.2451C112.911 76.3273 113.226 76.8898 113.123 77.5024Z" fill="#552950"/>
<path d="M111.105 74.6406L110.201 76.2549L109.9 80.6236H107.652" stroke="#DB836E" stroke-width="1.118" stroke-linecap="round" stroke-linejoin="round"/>
<path d="M111.828 74.2804C111.828 74.2804 113.634 73.5625 114.356 74.8188" stroke="#5C2552" stroke-width="1.118" stroke-linecap="round" stroke-linejoin="round"/>
<path d="M93.2031 74.0814C93.2031 74.0814 93.6843 72.9644 94.326 73.3635C94.9686 73.7626 95.6112 74.8003 94.8889 75.3588C94.1656 75.9163 95.0493 77.0333 95.0493 77.0333" stroke="#DB836E" stroke-width="1.118" stroke-linecap="round" stroke-linejoin="round"/>
<path d="M104.203 72.7256C104.203 72.7256 106.049 73.8416 108.377 73.6822" stroke="#5C2552" stroke-width="1.118" stroke-linecap="round" stroke-linejoin="round"/>
<path d="M95.5312 81.0225C95.5312 81.0225 97.8597 88.4423 106.047 88.6819M104.603 81.581C104.603 81.581 106.85 82.7772 109.018 82.7772L104.603 81.581ZM105.566 84.1338C105.566 84.1338 106.529 84.5328 107.091 84.4526L105.566 84.1338Z" stroke="#DB836E" stroke-width="1.118" stroke-linecap="round" stroke-linejoin="round"/>
<path d="M69.6125 82.4756C69.6125 82.4756 68.8801 91.7825 61.3359 96.7196M82.1727 89.2236C82.1727 89.2236 82.6267 94.8857 77.194 102.045L82.1727 89.2236Z" stroke="#E4EBF7" stroke-width="1.101" stroke-linecap="round" stroke-linejoin="round"/>
<path d="M130.552 122.794C130.552 122.794 125.234 130.217 121.047 133.591" stroke="#E4EBF7" stroke-width="1.051" stroke-linecap="round" stroke-linejoin="round"/>
<path d="M120.361 107.217C120.361 107.217 120.817 111.594 118.215 139.365" stroke="#E4EBF7" stroke-width="1.101" stroke-linecap="round" stroke-linejoin="round"/>
<path fill-rule="evenodd" clip-rule="evenodd" d="M151.356 151.237H101.078C100.807 151.237 100.548 151.13 100.357 150.94C100.166 150.75 100.059 150.493 100.059 150.224V118.451C100.059 117.893 100.515 117.438 101.078 117.438H151.356C151.918 117.438 152.374 117.893 152.374 118.451V150.224C152.374 150.493 152.267 150.75 152.076 150.94C151.885 151.13 151.626 151.237 151.356 151.237Z" fill="#F2D7AD"/>
<path fill-rule="evenodd" clip-rule="evenodd" d="M151.621 151.237H131.582V117.439H152.55V150.313C152.55 150.558 152.452 150.793 152.278 150.966C152.104 151.139 151.868 151.236 151.622 151.236" fill="#F4D19D"/>
<path fill-rule="evenodd" clip-rule="evenodd" d="M124.647 127.838H93.7387C93.6429 127.838 93.5489 127.813 93.4669 127.763C93.385 127.714 93.3182 127.643 93.2739 127.559C93.2297 127.474 93.2096 127.379 93.216 127.284C93.2224 127.189 93.2549 127.098 93.31 127.02L99.7464 117.883C99.9411 117.605 100.261 117.439 100.604 117.439H131.971L124.647 127.838Z" fill="#F2D7AD"/>
<path fill-rule="evenodd" clip-rule="evenodd" d="M124.784 128.391H100.129V127.871H124.512L131.758 117.583L132.186 117.882L124.784 128.391Z" fill="#CC9B6E"/>
<path fill-rule="evenodd" clip-rule="evenodd" d="M159.7 127.838H140.866C140.541 127.838 140.22 127.763 139.93 127.619C139.639 127.474 139.387 127.264 139.192 127.006L131.973 117.439H152.114C152.609 117.439 153.073 117.67 153.369 118.063L160.119 127.007C160.177 127.084 160.212 127.176 160.221 127.272C160.23 127.369 160.211 127.465 160.168 127.552C160.124 127.638 160.057 127.711 159.975 127.761C159.892 127.812 159.797 127.839 159.7 127.839" fill="#F4D19D"/>
<path fill-rule="evenodd" clip-rule="evenodd" d="M159.243 128.423H139.687L131.761 117.92L132.179 117.609L139.947 127.903H159.243V128.423ZM131.708 150.689L131.676 142.49L132.199 142.488L132.232 150.687L131.708 150.689Z" fill="#CC9B6E"/>
<path fill-rule="evenodd" clip-rule="evenodd" d="M131.667 139.758L131.587 118.286L132.11 118.284L132.191 139.756L131.667 139.758ZM112.867 140.91L112.365 140.766L113.857 135.585L114.36 135.729L112.867 140.91ZM109.398 141.038L106.695 138.095L109.384 134.652L109.798 134.971L107.379 138.068L109.784 140.687L109.398 141.038ZM117.64 141.038L117.254 140.687L119.658 138.068L117.24 134.971L117.653 134.652L120.342 138.095L117.64 141.038Z" fill="#CC9B6E"/>
<path fill-rule="evenodd" clip-rule="evenodd" d="M155.68 131.845L152.539 129.88L152.577 133.403L151.525 133.496C149.828 133.611 147.859 133.726 146.694 133.726C144.775 133.726 143.977 135.99 148.943 136.381L146.275 135.784C146.275 135.784 144.088 137.104 146.783 138.09C146.783 138.09 145.189 139.31 147.349 140.677C146.76 144.19 152.643 144.746 154.534 144.276C156.427 143.805 158.805 141.911 159.061 139.103C159.344 136.009 158.163 133.656 155.681 131.845" fill="#FFC6A0"/>
<path d="M155.045 133.535C155.045 133.535 148.466 134.006 146.611 133.908C144.759 133.81 144.69 136.104 148.991 136.178C152.763 136.329 154.49 136.134 154.49 136.134" stroke="#DB836E" stroke-width="1.051" stroke-linecap="round" stroke-linejoin="round"/>
<path d="M146.447 135.841C144.58 137.19 147.013 138.202 147.013 138.202C147.013 138.202 150.521 139.103 153.802 138.821" stroke="#DB836E" stroke-width="1.051" stroke-linecap="round" stroke-linejoin="round"/>
<path d="M53.3047 89.1254C56.869 88.7875 61.8022 87.874 67.0069 81.3506M153.233 141.69C153.233 141.69 146.898 141.801 146.444 139.552C146.219 138.203 146.898 138.146 146.898 138.146L153.233 141.69ZM147.406 140.846C147.406 140.846 146.293 144.014 152.894 144.388L147.406 140.846ZM152.539 129.88V133.367V129.88Z" stroke="#DB836E" stroke-width="1.051" stroke-linecap="round" stroke-linejoin="round"/>
<path fill-rule="evenodd" clip-rule="evenodd" d="M170.057 248.583C168.279 248.583 166.573 247.881 165.316 246.631C164.058 245.381 163.352 243.686 163.352 241.918V175.274C163.352 174.399 163.525 173.532 163.862 172.724C164.199 171.915 164.693 171.18 165.316 170.561C165.938 169.943 166.678 169.452 167.491 169.117C168.305 168.782 169.177 168.609 170.057 168.609C170.938 168.609 171.81 168.782 172.624 169.117C173.437 169.452 174.176 169.943 174.799 170.561C175.422 171.18 175.916 171.915 176.253 172.724C176.59 173.532 176.763 174.399 176.763 175.274V241.918C176.763 243.686 176.057 245.381 174.799 246.631C173.542 247.881 171.836 248.583 170.057 248.583Z" fill="#5BA02E"/>
<path fill-rule="evenodd" clip-rule="evenodd" d="M178.104 247.916C176.325 247.916 174.62 247.213 173.363 245.964C172.105 244.714 171.399 243.019 171.399 241.251V207.93C171.388 207.048 171.553 206.173 171.886 205.355C172.218 204.537 172.71 203.792 173.334 203.165C173.957 202.537 174.7 202.039 175.519 201.699C176.338 201.359 177.217 201.184 178.104 201.184C178.992 201.184 179.871 201.359 180.689 201.699C181.508 202.039 182.251 202.537 182.875 203.165C183.499 203.792 183.991 204.537 184.323 205.355C184.655 206.173 184.82 207.048 184.81 207.93V241.251C184.81 243.019 184.103 244.714 182.845 245.964C181.588 247.214 179.882 247.916 178.104 247.916Z" fill="#92C110"/>
<path fill-rule="evenodd" clip-rule="evenodd" d="M188.091 293.999H160.325C159.472 293.999 158.654 293.663 158.051 293.063C157.448 292.464 157.109 291.651 157.109 290.804V244.546C157.109 243.699 157.448 242.886 158.051 242.287C158.654 241.687 159.472 241.351 160.325 241.351H188.092C188.945 241.351 189.763 241.687 190.366 242.287C190.969 242.886 191.307 243.699 191.307 244.546V290.804C191.307 291.651 190.969 292.464 190.366 293.063C189.763 293.663 188.945 293.999 188.092 293.999" fill="#F2D7AD"/>
<path d="M89.7656 89.3193C89.7656 89.3193 97.6104 94.7178 106.513 92.1689" stroke="#E4EBF7" stroke-width="1.101" stroke-linecap="round" stroke-linejoin="round"/>
</svg>
