<svg width="79" height="24" viewBox="0 0 79 24" fill="none" xmlns="http://www.w3.org/2000/svg">
<g clip-path="url(#clip0_182624_13128)">
<path d="M5.73831 23.8807V22.2922C5.73831 21.6832 5.36758 21.2861 4.73212 21.2861C4.41445 21.2861 4.07025 21.392 3.83194 21.7362C3.6467 21.445 3.38197 21.2861 2.98483 21.2861C2.71998 21.2861 2.45538 21.3655 2.24348 21.6567V21.3391H1.6875V23.8807H2.24348V22.4775C2.24348 22.0275 2.48179 21.8156 2.85253 21.8156C3.22302 21.8156 3.40851 22.0539 3.40851 22.4775V23.8807H3.96449V22.4775C3.96449 22.0275 4.22909 21.8156 4.57329 21.8156C4.94402 21.8156 5.12927 22.0539 5.12927 22.4775V23.8807H5.73831ZM13.972 21.3391H13.0719V20.5713H12.516V21.3391H12.0129V21.842H12.5158V23.007C12.5158 23.5895 12.7542 23.9336 13.3896 23.9336C13.6279 23.9336 13.8925 23.8543 14.078 23.7484L13.9191 23.2717C13.7602 23.3776 13.575 23.4042 13.4426 23.4042C13.1778 23.4042 13.0719 23.2453 13.0719 22.9805V21.842H13.972V21.3391ZM18.6847 21.286C18.367 21.286 18.1552 21.445 18.0228 21.6567V21.3391H17.4668V23.8807H18.0228V22.451C18.0228 22.0275 18.2081 21.7892 18.5523 21.7892C18.6582 21.7892 18.7906 21.8157 18.8965 21.8421L19.0553 21.3127C18.9494 21.2861 18.7906 21.2861 18.6847 21.2861V21.286ZM11.5628 21.5509C11.298 21.3655 10.9274 21.2861 10.5302 21.2861C9.8949 21.2861 9.47134 21.6038 9.47134 22.1068C9.47134 22.5305 9.78901 22.7687 10.345 22.8482L10.6097 22.8747C10.901 22.9275 11.0598 23.007 11.0598 23.1394C11.0598 23.3247 10.848 23.4571 10.4773 23.4571C10.1067 23.4571 9.81542 23.3247 9.63005 23.1924L9.36533 23.6159C9.65659 23.8277 10.0537 23.9336 10.4508 23.9336C11.1921 23.9336 11.6158 23.5895 11.6158 23.1129C11.6158 22.6628 11.2716 22.4245 10.742 22.3451L10.4773 22.3186C10.239 22.2921 10.0537 22.2393 10.0537 22.0804C10.0537 21.8951 10.239 21.7892 10.5302 21.7892C10.848 21.7892 11.1657 21.9215 11.3245 22.0009L11.5628 21.5509ZM26.3361 21.2861C26.0183 21.2861 25.8065 21.445 25.6741 21.6567V21.3391H25.1181V23.8807H25.6741V22.451C25.6741 22.0275 25.8595 21.7892 26.2036 21.7892C26.3096 21.7892 26.442 21.8157 26.5479 21.8421L26.7067 21.3127C26.6008 21.2861 26.442 21.2861 26.3361 21.2861ZM19.2407 22.6099C19.2407 23.3776 19.7701 23.9336 20.5909 23.9336C20.9615 23.9336 21.2263 23.8543 21.491 23.6425L21.2263 23.1924C21.0145 23.3512 20.8027 23.4306 20.5644 23.4306C20.1143 23.4306 19.7966 23.1129 19.7966 22.6099C19.7966 22.1334 20.1143 21.8156 20.5644 21.7892C20.8027 21.7892 21.0145 21.8685 21.2263 22.0275L21.491 21.5774C21.2263 21.3655 20.9615 21.2861 20.5909 21.2861C19.7701 21.2861 19.2407 21.8421 19.2407 22.6099ZM24.3769 22.6099V21.3391H23.8209V21.6567C23.6356 21.4186 23.3708 21.2861 23.0266 21.2861C22.3118 21.2861 21.7558 21.8421 21.7558 22.6099C21.7558 23.3776 22.3118 23.9336 23.0266 23.9336C23.3973 23.9336 23.6621 23.8013 23.8209 23.563V23.8807H24.3769V22.6099ZM22.3382 22.6099C22.3382 22.1598 22.6295 21.7892 23.106 21.7892C23.5561 21.7892 23.8739 22.1334 23.8739 22.6099C23.8739 23.06 23.5561 23.4306 23.106 23.4306C22.6295 23.404 22.3382 23.06 22.3382 22.6099ZM15.693 21.2861C14.9517 21.2861 14.4221 21.8156 14.4221 22.6099C14.4221 23.4042 14.9515 23.9336 15.7194 23.9336C16.09 23.9336 16.4608 23.8277 16.752 23.5895L16.4872 23.1924C16.2754 23.3512 16.0107 23.4571 15.746 23.4571C15.4018 23.4571 15.0576 23.2983 14.9781 22.8481H16.8579V22.6364C16.8844 21.8156 16.4079 21.2861 15.693 21.2861ZM15.693 21.7626C16.0371 21.7626 16.2755 21.9745 16.3283 22.3717H15.0046C15.0576 22.0275 15.2959 21.7626 15.693 21.7626ZM29.4866 22.6099V20.333H28.9306V21.6567C28.7453 21.4186 28.4805 21.2861 28.1363 21.2861C27.4215 21.2861 26.8656 21.8421 26.8656 22.6099C26.8656 23.3776 27.4215 23.9336 28.1363 23.9336C28.5071 23.9336 28.7718 23.8013 28.9306 23.563V23.8807H29.4866V22.6099ZM27.4481 22.6099C27.4481 22.1598 27.7392 21.7892 28.2158 21.7892C28.6659 21.7892 28.9836 22.1334 28.9836 22.6099C28.9836 23.06 28.6659 23.4306 28.2158 23.4306C27.7392 23.404 27.4481 23.06 27.4481 22.6099ZM8.86229 22.6099V21.3391H8.30631V21.6567C8.12095 21.4186 7.85622 21.2861 7.51202 21.2861C6.79721 21.2861 6.24123 21.8421 6.24123 22.6099C6.24123 23.3776 6.79721 23.9336 7.51202 23.9336C7.88276 23.9336 8.14748 23.8013 8.30631 23.563V23.8807H8.86229V22.6099ZM6.79721 22.6099C6.79721 22.1598 7.08847 21.7892 7.56497 21.7892C8.01506 21.7892 8.33285 22.1334 8.33285 22.6099C8.33285 23.06 8.01506 23.4306 7.56497 23.4306C7.08847 23.404 6.79721 23.06 6.79721 22.6099Z" fill="#1E1E1E"/>
<path d="M11.377 2.03809H19.7167V17.0231H11.377V2.03809Z" fill="#FF5F00"/>
<path d="M11.9066 9.53114C11.9066 6.48651 13.3362 3.78597 15.5336 2.03855C13.9187 0.767759 11.8802 0 9.65626 0C4.38747 0 0.125 4.26247 0.125 9.53114C0.125 14.7997 4.38747 19.0623 9.65614 19.0623C11.8801 19.0623 13.9186 18.2945 15.5336 17.0236C13.3362 15.3027 11.9066 12.5758 11.9066 9.53114Z" fill="#EB001B"/>
<path d="M30.9692 9.53114C30.9692 14.7997 26.7067 19.0623 21.438 19.0623C19.2141 19.0623 17.1755 18.2945 15.5605 17.0236C17.7845 15.2763 19.1877 12.5758 19.1877 9.53114C19.1877 6.48651 17.7579 3.78597 15.5605 2.03855C17.1754 0.767759 19.2141 0 21.438 0C26.7067 0 30.9692 4.28901 30.9692 9.53114Z" fill="#F79E1B"/>
</g>
<g clip-path="url(#clip1_182624_13128)">
<path d="M63.5496 8.36811C63.5314 11.1431 64.8325 12.6915 65.8126 13.6122C66.8196 14.5568 67.1579 15.1626 67.1539 16.0074C67.1464 17.3002 66.3506 17.8708 65.606 17.8929C64.3069 17.9317 63.5515 17.2168 62.951 16.6761L62.483 20.8975C63.0855 21.4327 64.2011 21.8994 65.358 21.9199C68.0736 21.9199 69.8503 19.3358 69.8599 15.3293C69.8705 10.2445 66.2114 9.96305 66.2364 7.69028C66.245 7.00113 66.5861 6.26571 67.3336 6.07872C67.7036 5.98426 68.725 5.91197 69.883 6.93992L70.3375 2.85559C69.7148 2.41848 68.9144 1.99992 67.9179 1.99992C65.3619 1.99992 63.5641 4.6192 63.5496 8.36811ZM74.7048 2.35173C74.2089 2.35173 73.791 2.90932 73.6045 3.76498L69.7254 21.6199H72.439L72.979 18.7431H76.295L76.6082 21.6199H79L76.9129 2.35173H74.7048ZM75.0844 7.55679L75.8675 14.7922H73.7227L75.0844 7.55679ZM60.2595 2.35197L58.1205 21.6197H60.7064L62.8444 2.35149H60.2595M56.4341 2.35149L53.7426 15.4664L52.6539 4.31534C52.5261 3.07052 52.0216 2.35173 51.4614 2.35173H47.0616L47 2.91125C47.9032 3.28908 48.9295 3.89848 49.5512 4.55052C49.9318 4.94884 50.0403 5.29703 50.1653 6.24354L52.2274 21.6199H54.96L59.1495 2.35173L56.4341 2.35149Z" fill="url(#paint0_linear_182624_13128)"/>
</g>
<defs>
<linearGradient id="paint0_linear_182624_13128" x1="1518.17" y1="61.8794" x2="1629.08" y2="-1979.53" gradientUnits="userSpaceOnUse">
<stop stop-color="#222357"/>
<stop offset="1" stop-color="#254AA5"/>
</linearGradient>
<clipPath id="clip0_182624_13128">
<rect width="30.8744" height="24" fill="white" transform="translate(0.125)"/>
</clipPath>
<clipPath id="clip1_182624_13128">
<rect width="32" height="20" fill="white" transform="translate(47 2)"/>
</clipPath>
</defs>
</svg>
